<?xml version="1.0" encoding="utf-8"?>
<!-- Generated by IcoMoon.io -->
<!DOCTYPE svg PUBLIC "-//W3C//DTD SVG 1.1//EN" "http://www.w3.org/Graphics/SVG/1.1/DTD/svg11.dtd">
<svg version="1.1" xmlns="http://www.w3.org/2000/svg" xmlns:xlink="http://www.w3.org/1999/xlink" width="20" height="20" viewBox="0 0 20 20">
<path fill="#ffffff" d="M10 0c-5.52 0-10 4.48-10 10s4.48 10 10 10c5.52 0 10-4.48 10-10s-4.48-10-10-10zM10.040 3.36c0.94 0 1.72 0.76 1.72 1.72 0 0.94-0.76 1.72-1.72 1.72-0.94 0-1.72-0.76-1.72-1.72s0.76-1.72 1.72-1.72zM11.4 14.8h2v1.6h-6.6v-1.6h1.8v-5h-1.8v-1.6h4.6v6.6z"></path>
</svg>
