<?xml version="1.0" encoding="utf-8"?>
<!-- Generator: Adobe Illustrator 19.1.0, SVG Export Plug-In . SVG Version: 6.00 Build 0)  -->
<!DOCTYPE svg PUBLIC "-//W3C//DTD SVG 1.1//EN" "http://www.w3.org/Graphics/SVG/1.1/DTD/svg11.dtd">
<svg version="1.1" id="Layer_1" xmlns="http://www.w3.org/2000/svg" xmlns:xlink="http://www.w3.org/1999/xlink" x="0px" y="0px"
	 viewBox="-73 268.2 228.6 76.8" style="enable-background:new -73 268.2 228.6 76.8;" xml:space="preserve">
<style type="text/css">
	.st0{fill:#696A6D;}
	.st1{fill:#F15D2A;}
	.st2{fill:#FFFFFF;}
</style>
<g>
	<path class="st0" d="M-73,324.8v8.2c0,11.9,6.2,11.9,9.6,11.9c1.2,0,4.2,0,6.3-2.2c1.5-1.6,2.3-3.9,2.3-7.1c0-0.4-0.3-0.7-0.7-0.7
		h-3.3c-0.4,0-0.6,0.3-0.7,0.6c-0.1,4.8-2.7,5.5-4.2,5.5c-2.5,0-4.8-0.6-4.8-7.6v-7.8c0-4.3,0.6-5.4,0.7-5.7l0.1-0.1v-0.1
		c0.1-0.3,1.2-2,4-2c0.4,0,2.2,0.2,3,1.1c0.5,0.6,0.8,1.8,0.8,3.5v0.3c0,0.2,0.1,0.3,0.2,0.5c0.1,0.1,0.3,0.2,0.5,0.2h3.3
		c0.4,0,0.6-0.3,0.6-0.6v-0.9c0-2.6-0.6-4.4-1.8-5.7c-1.3-1.4-3.4-2.1-6.2-2.1C-70,313.9-73,317.3-73,324.8z"/>
	<path class="st0" d="M-51.5,329L-51.5,329c0,0.2,0.1,0.4,0.2,0.5c0.1,0.1,0.3,0.2,0.5,0.2h3c0.2,0,0.4-0.1,0.5-0.2
		c0.1-0.1,0.2-0.3,0.2-0.5v-0.2c0-0.8,0.2-1.5,0.7-2s1.2-0.8,2.2-0.8s1.7,0.2,2.2,0.7c0.8,0.8,0.9,2.1,0.9,3.4c0,0,0,0.7,0,0.8
		c-3.3-0.1-6.9,0.2-9,2.2c-1.1,1.1-1.7,2.6-1.7,4.5c0,4.8,1.9,7.1,5.9,7.1c2.2,0,3.8-0.8,4.8-2.5c0,0.4,0,1.5,0,1.5
		c0,0.4,0.3,0.7,0.7,0.7h3c0.2,0,0.4-0.1,0.5-0.2s0.2-0.3,0.1-0.5c-0.2-1.7-0.4-3.2-0.4-4.5v-9.8c0-4.4-2.3-6.5-7-6.5
		C-49,322.8-51.2,324.8-51.5,329z M-48.1,338c0-3.4,2.8-3.7,6.4-3.7c0,0,0.2,0,0.3,0c0,0.1,0,0.7,0,0.7c0,2.6-0.5,4.4-1.5,5.4
		c-0.6,0.6-1.4,1-2.4,1C-47,341.3-48.1,340-48.1,338z"/>
	<path class="st0" d="M-23.5,322.9L-23.5,322.9c-2.7,0-4.4,0.5-5.7,2.5c0-0.4,0-1.5,0-1.5c0-0.4-0.3-0.7-0.7-0.7h-2.8
		c-0.4,0-0.7,0.3-0.7,0.7v19.8c0,0.4,0.3,0.7,0.7,0.7h2.8c0.4,0,0.7-0.3,0.7-0.7V332c0-3.4,1.4-5.2,4.2-5.2l1.3,0.1l0,0h0.1
		c0.2,0,0.4,0,0.5-0.2c0.1-0.1,0.2-0.3,0.2-0.5v-2.8c0-0.2-0.1-0.3-0.2-0.5C-23.1,322.9-23.3,322.8-23.5,322.9z"/>
	<path class="st0" d="M-29.7,326.6L-29.7,326.6L-29.7,326.6z"/>
	<path class="st0" d="M-19.2,314.5c-0.4,0-0.7,0.3-0.7,0.7v28.6c0,0.4,0.3,0.7,0.7,0.7h2.8c0.4,0,0.7-0.3,0.7-0.7c0,0,0-0.8,0-1.2
		c1.2,1.5,2.5,2.2,4.4,2.2c3.2,0,7-1.2,7-10.6c0-6-0.5-11.3-7.1-11.3c-1.7,0-3.1,0.7-4.2,2c0-0.4,0-9.7,0-9.7c0-0.4-0.3-0.7-0.7-0.7
		H-19.2z M-14.5,340.6L-14.5,340.6c-1.4-1.4-1.4-4.6-1.4-6.9V333c0-3.3,0.4-6.7,3.5-6.7s3.7,2.4,3.7,7.9c0,3.8-0.3,7.1-3.8,7.1
		C-13.3,341.3-14,341.1-14.5,340.6z"/>
	<path class="st0" d="M-1.6,334.1c0,9.8,4.2,10.7,8.1,10.7s8.1-0.8,8.1-10.7c0-5.9-0.6-11.3-8.1-11.3
		C-0.9,322.8-1.6,328.2-1.6,334.1z M2.7,332.7c0-5.3,1.6-6.4,3.9-6.4s3.9,1.1,3.9,6.4c0,6.7-0.9,8.6-3.9,8.6
		C3.5,341.3,2.7,339.4,2.7,332.7z"/>
	<path class="st0" d="M22.1,325.3c0-0.4,0-1.4,0-1.4c0-0.4-0.3-0.7-0.7-0.7h-2.9c-0.2,0-0.4,0.1-0.5,0.2c-0.1,0.1-0.2,0.3-0.2,0.5
		c0.1,1.5,0.2,2.8,0.2,3.9v15.9c0,0.4,0.3,0.7,0.7,0.7h2.7c0.4,0,0.7-0.3,0.7-0.7v-11.8c0-3.9,1.2-5.6,3.8-5.6
		c2.2,0,3.2,1.1,3.2,3.6v13.8c0,0.4,0.3,0.7,0.7,0.7h2.7c0.4,0,0.6-0.3,0.6-0.7v-13.8c0-4.9-1.7-7-5.8-7
		C24.8,322.8,23.3,323.6,22.1,325.3z"/>
	<path class="st0" d="M48,314.5c-0.4,0-0.7,0.3-0.7,0.7v28.6c0,0.4,0.3,0.7,0.7,0.7h3.2c0.4,0,0.7-0.3,0.7-0.7c0,0,0-12.5,0-12.7
		c0.2,0,9.5,0,9.5,0c0.4,0,0.7-0.3,0.7-0.7v-2.7c0-0.4-0.3-0.7-0.7-0.7c0,0-9.3,0-9.5,0c0-0.2,0-8.4,0-8.6c0.2,0,10.1,0,10.1,0
		c0.4,0,0.6-0.3,0.6-0.7V315c0-0.4-0.3-0.7-0.6-0.7H48V314.5z"/>
	<path class="st0" d="M67,314.5c-0.4,0-0.7,0.3-0.7,0.7v3c0,0.4,0.3,0.7,0.7,0.7h3.2c0.4,0,0.7-0.3,0.7-0.7v-3
		c0-0.4-0.3-0.7-0.7-0.7H67z M67.2,323.2c-0.4,0-0.7,0.3-0.7,0.7v19.8c0,0.4,0.3,0.7,0.7,0.7h2.7c0.4,0,0.7-0.3,0.7-0.7v-19.8
		c0-0.4-0.3-0.7-0.7-0.7H67.2z"/>
	<path class="st0" d="M87.7,323.2c-0.3,0-0.6,0.2-0.6,0.5c0,0-3.9,13.7-4.5,15.9c-0.2-0.6-4.2-15.9-4.2-15.9
		c-0.1-0.3-0.3-0.5-0.6-0.5h-3.1c-0.2,0-0.4,0.1-0.5,0.3c-0.1,0.2-0.2,0.4-0.1,0.6l5.9,19.8c0.1,0.3,0.3,0.5,0.6,0.5h3.9
		c0.3,0,0.5-0.2,0.6-0.5l6.2-19.8c0.1-0.2,0-0.4-0.1-0.6c-0.1-0.2-0.3-0.3-0.5-0.3H87.7z"/>
	<path class="st0" d="M92.6,334.1c0,9.8,4.2,10.7,8.1,10.7c4.6,0,7.3-2.4,7.4-6.7c0-0.2-0.1-0.3-0.2-0.5c-0.1-0.1-0.3-0.2-0.5-0.2
		h-3.1c-0.3,0-0.6,0.3-0.6,0.6c-0.2,2-1.4,3.3-3.2,3.3c-1.9,0-3.6-0.5-3.7-6.1c0.2,0,10.8,0,10.8,0c0.4,0,0.7-0.3,0.7-0.7V333
		c0-7.6-2-10.3-7.6-10.3C93.3,322.8,92.6,328.2,92.6,334.1z M100.5,326.1c2,0,3.6,0.5,3.7,5.9c-0.2,0-7,0-7.2,0
		C97.1,326.8,98.7,326.1,100.5,326.1z"/>
</g>
<path class="st1" d="M154,302.2c1.3-0.9,1.9-2.9,1.4-4.4l-8.7-26.8c-0.4-1.6-2.1-2.8-3.7-2.8h-28.2c-1.6,0-3.3,1.2-3.8,2.7
	l-8.7,26.8c-0.5,1.5,0.2,3.5,1.5,4.4l22.8,16.6c1.3,0.9,3.4,0.9,4.7,0L154,302.2z"/>
<path class="st2" d="M147.1,293.2c0.4,1.1-0.3,2-1.4,2h-33.3c-1.1,0-1.8-0.9-1.4-2l5.3-16.4c0.3-1.1,1.6-2,2.7-2h20
	c1.1,0,2.3,0.9,2.7,2l0.9,2.8c0.4,1.1-0.3,2-1.4,2h-16.5c-1.1,0-2.3,0.9-2.7,2l-0.9,2.9c-0.3,1.1,0.3,2,1.4,2h20.9
	c1.1,0,2.3,0.9,2.7,1.9L147.1,293.2z"/>
<path class="st2" d="M116.7,302.7c-0.9-0.7-0.7-1.2,0.4-1.2h23.8c1.1,0,1.3,0.5,0.4,1.2l-10.6,7.7c-0.9,0.7-2.4,0.7-3.3,0
	L116.7,302.7z"/>
<path class="st2" d="M147.1,293.2c0.4,1.1-0.3,2-1.4,2h-33.3c-1.1,0-1.8-0.9-1.4-2l5.3-16.4c0.3-1.1,1.6-2,2.7-2h20
	c1.1,0,2.3,0.9,2.7,2l0.9,2.8c0.4,1.1-0.3,2-1.4,2h-16.5c-1.1,0-2.3,0.9-2.7,2l-0.9,2.9c-0.3,1.1,0.3,2,1.4,2h20.9
	c1.1,0,2.3,0.9,2.7,1.9L147.1,293.2z"/>
<path class="st2" d="M116.7,302.7c-0.9-0.7-0.7-1.2,0.4-1.2h23.8c1.1,0,1.3,0.5,0.4,1.2l-10.6,7.7c-0.9,0.7-2.4,0.7-3.3,0
	L116.7,302.7z"/>
</svg>
