<?xml version="1.0" encoding="utf-8"?>
<!-- Generator: Adobe Illustrator 19.1.0, SVG Export Plug-In . SVG Version: 6.00 Build 0)  -->
<svg version="1.1" id="Layer_1" xmlns="http://www.w3.org/2000/svg" xmlns:xlink="http://www.w3.org/1999/xlink" x="0px" y="0px"
	 viewBox="-50 239 237 84" style="enable-background:new -50 239 237 84;" xml:space="preserve">
<style type="text/css">
	.st0{fill:#FFFFFF;}
	.st1{fill:#F15D2A;}
</style>
<g>
	<path class="st0" d="M-44.2,299.2v8.2c0,11.9,6.2,11.9,9.6,11.9c1.2,0,4.2,0,6.3-2.2c1.5-1.6,2.3-3.9,2.3-7.1
		c0-0.4-0.3-0.7-0.7-0.7H-30c-0.4,0-0.6,0.3-0.7,0.6c-0.1,4.8-2.7,5.5-4.2,5.5c-2.5,0-4.8-0.6-4.8-7.6V300c0-4.3,0.6-5.4,0.7-5.7
		l0.1-0.1v-0.1c0.1-0.3,1.2-2,4-2c0.4,0,2.2,0.2,3,1.1c0.5,0.6,0.8,1.8,0.8,3.5v0.3c0,0.2,0.1,0.3,0.2,0.5c0.1,0.1,0.3,0.2,0.5,0.2
		h3.3c0.4,0,0.6-0.3,0.6-0.6v-0.9c0-2.6-0.6-4.4-1.8-5.7c-1.3-1.4-3.4-2.1-6.2-2.1C-41.2,288.4-44.2,291.8-44.2,299.2z"/>
	<path class="st0" d="M-22.7,303.5L-22.7,303.5c0,0.2,0.1,0.4,0.2,0.5c0.1,0.1,0.3,0.2,0.5,0.2h3c0.2,0,0.4-0.1,0.5-0.2
		s0.2-0.3,0.2-0.5v-0.2c0-0.8,0.2-1.5,0.7-2s1.2-0.8,2.2-0.8s1.7,0.2,2.2,0.7c0.8,0.8,0.9,2.1,0.9,3.4c0,0,0,0.7,0,0.8
		c-3.3-0.1-6.9,0.2-9,2.2c-1.1,1.1-1.7,2.6-1.7,4.5c0,4.8,1.9,7.1,5.9,7.1c2.2,0,3.8-0.8,4.8-2.5c0,0.4,0,1.5,0,1.5
		c0,0.4,0.3,0.7,0.7,0.7h3c0.2,0,0.4-0.1,0.5-0.2s0.2-0.3,0.1-0.5c-0.2-1.7-0.4-3.2-0.4-4.5v-9.8c0-4.4-2.3-6.5-7-6.5
		C-20.2,297.2-22.4,299.1-22.7,303.5z M-19.3,312.5c0-3.4,2.8-3.7,6.4-3.7c0,0,0.2,0,0.3,0c0,0.1,0,0.7,0,0.7c0,2.6-0.5,4.4-1.5,5.4
		c-0.6,0.6-1.4,1-2.4,1C-18.3,315.8-19.3,314.5-19.3,312.5z"/>
	<path class="st0" d="M5.3,297.2L5.3,297.2c-2.7,0-4.4,0.5-5.7,2.5c0-0.4,0-1.5,0-1.5c0-0.4-0.3-0.7-0.7-0.7h-2.8
		c-0.4,0-0.7,0.3-0.7,0.7V318c0,0.4,0.3,0.7,0.7,0.7h2.8c0.4,0,0.7-0.3,0.7-0.7v-11.7c0-3.4,1.4-5.2,4.2-5.2l1.3,0.1l0,0h0.1
		c0.2,0,0.4,0,0.5-0.2c0.1-0.1,0.2-0.3,0.2-0.5v-2.8c0-0.2-0.1-0.3-0.2-0.5C5.7,297.4,5.5,297.2,5.3,297.2z"/>
	<path class="st0" d="M-1,301.1L-1,301.1L-1,301.1z"/>
	<path class="st0" d="M9.6,289c-0.4,0-0.7,0.3-0.7,0.7v28.6c0,0.4,0.3,0.7,0.7,0.7h2.8c0.4,0,0.7-0.3,0.7-0.7c0,0,0-0.8,0-1.2
		c1.2,1.5,2.5,2.2,4.4,2.2c3.2,0,7-1.2,7-10.6c0-6-0.5-11.3-7.1-11.3c-1.7,0-3.1,0.7-4.2,2c0-0.4,0-9.7,0-9.7c0-0.4-0.3-0.7-0.7-0.7
		H9.6z M14.3,315.1L14.3,315.1c-1.4-1.4-1.4-4.6-1.4-6.9v-0.7c0-3.3,0.4-6.7,3.5-6.7s3.7,2.4,3.7,7.9c0,3.8-0.3,7.1-3.8,7.1
		C15.5,315.8,14.8,315.6,14.3,315.1z"/>
	<path class="st0" d="M27.2,308.6c0,9.8,4.2,10.7,8.1,10.7s8.1-0.8,8.1-10.7c0-5.9-0.6-11.3-8.1-11.3
		C27.8,297.2,27.2,302.6,27.2,308.6z M31.4,307.1c0-5.3,1.6-6.4,3.9-6.4s3.9,1.1,3.9,6.4c0,6.7-0.9,8.6-3.9,8.6
		S31.4,313.9,31.4,307.1z"/>
	<path class="st0" d="M50.9,299.8c0-0.4,0-1.4,0-1.4c0-0.4-0.3-0.7-0.7-0.7h-2.9c-0.2,0-0.4,0.1-0.5,0.2s-0.2,0.3-0.2,0.5
		c0.1,1.5,0.2,2.8,0.2,3.9v15.9c0,0.4,0.3,0.7,0.7,0.7h2.7c0.4,0,0.7-0.3,0.7-0.7v-11.8c0-3.9,1.2-5.6,3.8-5.6
		c2.2,0,3.2,1.1,3.2,3.6v13.8c0,0.4,0.3,0.7,0.7,0.7h2.7c0.4,0,0.6-0.3,0.6-0.7v-13.8c0-4.9-1.7-7-5.8-7
		C53.6,297.2,52.1,298.1,50.9,299.8z"/>
	<path class="st0" d="M76.8,289c-0.4,0-0.7,0.3-0.7,0.7v28.6c0,0.4,0.3,0.7,0.7,0.7H80c0.4,0,0.7-0.3,0.7-0.7c0,0,0-12.5,0-12.7
		c0.2,0,9.5,0,9.5,0c0.4,0,0.7-0.3,0.7-0.7v-2.7c0-0.4-0.3-0.7-0.7-0.7c0,0-9.3,0-9.5,0c0-0.2,0-8.4,0-8.6c0.2,0,10.1,0,10.1,0
		c0.4,0,0.6-0.3,0.6-0.7v-2.6c0-0.4-0.3-0.7-0.6-0.7h-14L76.8,289L76.8,289z"/>
	<path class="st0" d="M95.7,289c-0.4,0-0.7,0.3-0.7,0.7v3c0,0.4,0.3,0.7,0.7,0.7h3.2c0.4,0,0.7-0.3,0.7-0.7v-3
		c0-0.4-0.3-0.7-0.7-0.7H95.7z M96,297.6c-0.4,0-0.7,0.3-0.7,0.7v19.8c0,0.4,0.3,0.7,0.7,0.7h2.7c0.4,0,0.7-0.3,0.7-0.7v-19.8
		c0-0.4-0.3-0.7-0.7-0.7H96z"/>
	<path class="st0" d="M116.5,297.6c-0.3,0-0.6,0.2-0.6,0.5c0,0-3.9,13.7-4.5,15.9c-0.2-0.6-4.2-15.9-4.2-15.9
		c-0.1-0.3-0.3-0.5-0.6-0.5h-3.1c-0.2,0-0.4,0.1-0.5,0.3c-0.1,0.2-0.2,0.4-0.1,0.6l5.9,19.8c0.1,0.3,0.3,0.5,0.6,0.5h3.9
		c0.3,0,0.5-0.2,0.6-0.5l6.2-19.8c0.1-0.2,0-0.4-0.1-0.6s-0.3-0.3-0.5-0.3H116.5z"/>
	<path class="st0" d="M121.4,308.6c0,9.8,4.2,10.7,8.1,10.7c4.6,0,7.3-2.4,7.4-6.7c0-0.2-0.1-0.3-0.2-0.5c-0.1-0.1-0.3-0.2-0.5-0.2
		h-3.1c-0.3,0-0.6,0.3-0.6,0.6c-0.2,2-1.4,3.3-3.2,3.3c-1.9,0-3.6-0.5-3.7-6.1c0.2,0,10.8,0,10.8,0c0.4,0,0.7-0.3,0.7-0.7v-1.4
		c0-7.6-2-10.3-7.6-10.3C122,297.2,121.4,302.6,121.4,308.6z M129.3,300.6c2,0,3.6,0.5,3.7,5.9c-0.2,0-7,0-7.2,0
		C125.9,301.2,127.5,300.6,129.3,300.6z"/>
</g>
<path class="st1" d="M184.3,272.1l-8.7-26.8c-0.5-1.5-2.2-2.7-3.8-2.7h-28.2c-1.6,0-3.3,1.2-3.8,2.7l-8.7,26.8
	c-0.5,1.5,0.2,3.5,1.5,4.4l22.8,16.6c1.3,0.9,3.4,0.9,4.7,0l22.8-16.6C184.1,275.6,184.8,273.8,184.3,272.1z M170.1,277.1l-10.6,7.7
	c-0.9,0.7-2.4,0.7-3.3,0l-10.6-7.7c-0.9-0.7-0.7-1.2,0.4-1.2h23.8C170.8,276,171,276.5,170.1,277.1z M174.4,269.6h-33.3
	c-1.1,0-1.8-0.9-1.4-2l5.3-16.4c0.3-1.1,1.6-2,2.7-2h20.1c1.1,0,2.3,0.9,2.7,2l0.9,2.8c0.4,1.1-0.3,2-1.4,2h-16.5
	c-1.1,0-2.3,0.9-2.7,2l-0.9,2.9c-0.3,1.1,0.3,2,1.4,2h20.9c1.1,0,2.3,0.9,2.7,1.9l0.9,2.9C176.2,268.8,175.6,269.6,174.4,269.6z"/>
</svg>
