<?xml version="1.0" encoding="utf-8"?>
<!-- Generator: Adobe Illustrator 19.0.1, SVG Export Plug-In . SVG Version: 6.00 Build 0)  -->
<svg version="1.1" id="Layer_1" xmlns="http://www.w3.org/2000/svg" xmlns:xlink="http://www.w3.org/1999/xlink" x="0px" y="0px"
	 viewBox="40 197.6 720 86.4" style="enable-background:new 40 197.6 720 86.4;" xml:space="preserve">
<style type="text/css">
	.st0{fill:#FFFFFF;}
</style>
<g>
	<g>
		<polygon class="st0" points="145.5,223.1 137.5,215 123.4,229.1 109.2,215 101.2,223.1 115.3,237 101.2,251 109.2,259 123.4,245 
			137.5,259 145.5,251 131.4,237 		"/>
		<circle class="st0" cx="63" cy="237" r="22"/>
		<rect x="164" y="215" class="st0" width="44" height="44"/>
	</g>
	<g>
		<path class="st0" d="M261.6,215l18.4,29.5h0.1V215h9.1v44h-9.7l-18.3-29.5H261V259H252v-44H261.6z"/>
		<path class="st0" d="M295.4,236.2c0.8-2.1,1.9-3.8,3.3-5.3c1.4-1.5,3.2-2.6,5.2-3.4c2-0.8,4.3-1.2,6.8-1.2c2.5,0,4.8,0.4,6.8,1.2
			c2,0.8,3.8,1.9,5.2,3.4c1.4,1.5,2.5,3.2,3.3,5.3c0.8,2.1,1.2,4.4,1.2,6.9c0,2.5-0.4,4.8-1.2,6.9c-0.8,2.1-1.9,3.8-3.3,5.3
			c-1.4,1.5-3.2,2.6-5.2,3.4c-2,0.8-4.3,1.2-6.8,1.2s-4.8-0.4-6.8-1.2c-2-0.8-3.7-1.9-5.2-3.4c-1.4-1.5-2.5-3.2-3.3-5.3
			c-0.8-2.1-1.2-4.4-1.2-6.9C294.2,240.6,294.6,238.3,295.4,236.2z M303.3,246.9c0.2,1.2,0.7,2.3,1.3,3.3c0.6,1,1.4,1.7,2.4,2.3
			c1,0.6,2.2,0.9,3.7,0.9c1.5,0,2.7-0.3,3.7-0.9c1-0.6,1.8-1.3,2.4-2.3c0.6-1,1-2.1,1.3-3.3c0.2-1.2,0.4-2.5,0.4-3.7
			c0-1.3-0.1-2.5-0.4-3.8c-0.2-1.2-0.7-2.3-1.3-3.3c-0.6-0.9-1.4-1.7-2.4-2.3c-1-0.6-2.2-0.9-3.7-0.9c-1.5,0-2.7,0.3-3.7,0.9
			c-1,0.6-1.8,1.4-2.4,2.3c-0.6,0.9-1,2-1.3,3.3c-0.2,1.2-0.4,2.5-0.4,3.8C302.9,244.4,303.1,245.6,303.3,246.9z"/>
		<path class="st0" d="M352.9,259v-4.4h-0.2c-1.1,1.8-2.5,3.2-4.3,4c-1.8,0.8-3.6,1.2-5.4,1.2c-2.3,0-4.3-0.3-5.8-0.9
			c-1.5-0.6-2.7-1.5-3.5-2.6c-0.9-1.1-1.5-2.5-1.8-4.1c-0.3-1.6-0.5-3.4-0.5-5.4v-19.6h8.7v18c0,2.6,0.4,4.6,1.2,5.9
			c0.8,1.3,2.3,1.9,4.4,1.9c2.4,0,4.1-0.7,5.2-2.1c1.1-1.4,1.6-3.7,1.6-7v-16.7h8.7V259L352.9,259L352.9,259z"/>
		<path class="st0" d="M374.9,227.2v4.4h0.2c1.1-1.8,2.5-3.2,4.3-4c1.8-0.8,3.6-1.3,5.4-1.3c2.3,0,4.3,0.3,5.8,1
			c1.5,0.6,2.7,1.5,3.5,2.6c0.9,1.1,1.5,2.5,1.8,4.1c0.3,1.6,0.5,3.4,0.5,5.4V259h-8.7v-18c0-2.6-0.4-4.6-1.2-5.9
			c-0.8-1.3-2.3-1.9-4.4-1.9c-2.4,0-4.1,0.7-5.2,2.1c-1.1,1.4-1.6,3.7-1.6,7V259h-8.7v-31.9L374.9,227.2L374.9,227.2z"/>
		<path class="st0" d="M437.4,215c2.8,0,5.1,0.4,7,1.2c1.9,0.8,3.5,1.9,4.7,3.2c1.2,1.3,2.1,2.8,2.6,4.5c0.6,1.7,0.8,3.4,0.8,5.2
			c0,1.8-0.3,3.5-0.8,5.2c-0.6,1.7-1.4,3.2-2.6,4.5c-1.2,1.3-2.8,2.4-4.7,3.2c-1.9,0.8-4.3,1.2-7,1.2h-10.2V259h-9.7v-44H437.4z
			 M434.8,235.7c1.1,0,2.2-0.1,3.2-0.2c1-0.2,1.9-0.5,2.7-1c0.8-0.5,1.4-1.1,1.9-2c0.5-0.9,0.7-2,0.7-3.4c0-1.4-0.2-2.5-0.7-3.4
			c-0.5-0.9-1.1-1.5-1.9-2c-0.8-0.5-1.7-0.8-2.7-1c-1-0.2-2.1-0.2-3.2-0.2h-7.5v13.2H434.8z"/>
		<path class="st0" d="M464.6,227.2v5.9h0.1c0.4-1,1-1.9,1.7-2.7c0.7-0.8,1.5-1.6,2.4-2.2c0.9-0.6,1.9-1.1,2.9-1.4
			c1-0.3,2.1-0.5,3.2-0.5c0.6,0,1.2,0.1,1.9,0.3v8.1c-0.4-0.1-0.9-0.2-1.5-0.2s-1.1-0.1-1.7-0.1c-1.6,0-3,0.3-4.1,0.8
			c-1.1,0.5-2,1.3-2.7,2.2s-1.2,2-1.4,3.2c-0.3,1.2-0.4,2.6-0.4,4V259h-8.7v-31.9H464.6z"/>
		<path class="st0" d="M477.7,236.2c0.8-2.1,1.9-3.8,3.3-5.3c1.4-1.5,3.2-2.6,5.2-3.4c2-0.8,4.3-1.2,6.8-1.2c2.5,0,4.8,0.4,6.8,1.2
			c2,0.8,3.8,1.9,5.2,3.4c1.4,1.5,2.5,3.2,3.3,5.3c0.8,2.1,1.2,4.4,1.2,6.9c0,2.5-0.4,4.8-1.2,6.9c-0.8,2.1-1.9,3.8-3.3,5.3
			c-1.4,1.5-3.2,2.6-5.2,3.4c-2,0.8-4.3,1.2-6.8,1.2c-2.5,0-4.8-0.4-6.8-1.2c-2-0.8-3.7-1.9-5.2-3.4c-1.4-1.5-2.5-3.2-3.3-5.3
			c-0.8-2.1-1.2-4.4-1.2-6.9C476.6,240.6,477,238.3,477.7,236.2z M485.7,246.9c0.2,1.2,0.7,2.3,1.3,3.3c0.6,1,1.4,1.7,2.4,2.3
			c1,0.6,2.2,0.9,3.7,0.9c1.5,0,2.7-0.3,3.7-0.9c1-0.6,1.8-1.3,2.4-2.3c0.6-1,1-2.1,1.3-3.3c0.2-1.2,0.4-2.5,0.4-3.7
			c0-1.3-0.1-2.5-0.4-3.8c-0.2-1.2-0.7-2.3-1.3-3.3c-0.6-0.9-1.4-1.7-2.4-2.3c-1-0.6-2.2-0.9-3.7-0.9c-1.5,0-2.7,0.3-3.7,0.9
			c-1,0.6-1.8,1.4-2.4,2.3c-0.6,0.9-1,2-1.3,3.3c-0.2,1.2-0.4,2.5-0.4,3.8C485.3,244.4,485.4,245.6,485.7,246.9z"/>
		<path class="st0" d="M510.1,263c0.9,0,1.7-0.2,2.4-0.5c0.7-0.3,1-1.1,1-2.3v-33h8.7v33.4c0,1.6-0.2,3.1-0.5,4.3
			c-0.3,1.2-0.9,2.2-1.8,3c-0.8,0.8-2,1.4-3.4,1.8c-1.4,0.4-3.3,0.6-5.5,0.6c-1,0-2-0.1-2.8-0.2v-7.2
			C508.7,262.9,509.4,263,510.1,263z M513.5,222.2V215h8.7v7.2H513.5z"/>
		<path class="st0" d="M537.7,251.4c1.3,1.3,3.2,1.9,5.7,1.9c1.8,0,3.3-0.4,4.6-1.3c1.3-0.9,2.1-1.8,2.3-2.8h7.7
			c-1.2,3.8-3.1,6.6-5.7,8.2c-2.5,1.6-5.6,2.5-9.2,2.5c-2.5,0-4.8-0.4-6.8-1.2c-2-0.8-3.7-1.9-5.1-3.4c-1.4-1.5-2.5-3.2-3.2-5.3
			c-0.8-2.1-1.1-4.3-1.1-6.8c0-2.4,0.4-4.6,1.2-6.7c0.8-2.1,1.9-3.8,3.3-5.3c1.4-1.5,3.2-2.7,5.1-3.5c2-0.9,4.2-1.3,6.6-1.3
			c2.7,0,5.1,0.5,7.1,1.6c2,1,3.7,2.5,5,4.2c1.3,1.8,2.2,3.8,2.8,6c0.6,2.3,0.8,4.6,0.6,7.1h-23
			C535.7,248.1,536.4,250.1,537.7,251.4z M547.6,234.6c-1-1.1-2.6-1.7-4.8-1.7c-1.4,0-2.6,0.2-3.5,0.7c-0.9,0.5-1.7,1.1-2.2,1.8
			c-0.6,0.7-0.9,1.4-1.2,2.2c-0.2,0.8-0.4,1.5-0.4,2.1h14.2C549.4,237.5,548.6,235.8,547.6,234.6z"/>
		<path class="st0" d="M578,232.9c-1.4,0-2.6,0.3-3.5,1c-0.9,0.6-1.7,1.5-2.3,2.5c-0.6,1-1,2.1-1.3,3.3c-0.2,1.2-0.4,2.4-0.4,3.6
			c0,1.2,0.1,2.3,0.4,3.5c0.2,1.2,0.6,2.3,1.2,3.2c0.6,1,1.3,1.8,2.2,2.4c0.9,0.6,2.1,0.9,3.5,0.9c2.1,0,3.7-0.6,4.8-1.8
			c1.1-1.2,1.8-2.7,2.1-4.7h8.4c-0.6,4.2-2.2,7.5-4.9,9.7c-2.7,2.2-6.2,3.3-10.4,3.3c-2.4,0-4.6-0.4-6.6-1.2c-2-0.8-3.7-1.9-5.1-3.4
			c-1.4-1.4-2.5-3.2-3.3-5.1c-0.8-2-1.2-4.2-1.2-6.6c0-2.5,0.4-4.8,1.1-6.9c0.7-2.1,1.8-3.9,3.2-5.5c1.4-1.5,3.1-2.7,5.1-3.6
			c2-0.9,4.3-1.3,6.9-1.3c1.9,0,3.7,0.2,5.5,0.7c1.7,0.5,3.3,1.2,4.7,2.2c1.4,1,2.5,2.3,3.4,3.8c0.9,1.5,1.4,3.3,1.5,5.3h-8.6
			C583.9,234.7,581.8,232.9,578,232.9z"/>
		<path class="st0" d="M615.3,227.2v5.9h-6.4v15.8c0,1.5,0.2,2.5,0.7,3c0.5,0.5,1.5,0.7,3,0.7c0.5,0,1,0,1.4-0.1
			c0.5,0,0.9-0.1,1.3-0.2v6.8c-0.7,0.1-1.6,0.2-2.5,0.2c-0.9,0-1.8,0.1-2.6,0.1c-1.4,0-2.6-0.1-3.9-0.3c-1.2-0.2-2.3-0.5-3.2-1.1
			c-0.9-0.5-1.7-1.3-2.2-2.3c-0.5-1-0.8-2.3-0.8-3.9V233h-5.3v-5.9h5.3v-9.6h8.7v9.6L615.3,227.2L615.3,227.2z"/>
	</g>
</g>
</svg>
